
<svg width="23" height="25" viewBox="0 0 23 25" fill="none" xmlns="http://www.w3.org/2000/svg">
<path d="M22.0707 11.2114C22.0707 5.40226 17.3445 0.676117 11.5353 0.676117C5.72615 0.676117 1.03687 5.36644 1.00105 11.1445H1V16.7852C1 18.3149 2.24422 19.5591 3.77395 19.5591H7.3212V13.9185C7.3212 12.3888 6.07697 11.1445 4.54724 11.1445H3.10812C3.14394 6.52796 6.91032 2.78318 11.5353 2.78318C16.1603 2.78318 19.9267 6.52796 19.9625 11.1445H18.4818C16.9521 11.1445 15.7078 12.3888 15.7078 13.9185V19.5591H18.9101V20.6126C18.9101 21.1937 18.4375 21.6662 17.8565 21.6662H14.8682V19.6044H10.24C9.50201 19.6044 8.90149 20.2049 8.90149 20.9429V24.6761H13.5297C14.1149 24.6761 14.6137 24.2979 14.795 23.7732H17.8565C19.5991 23.7732 21.0171 22.3552 21.0171 20.6126V19.0323H20.8786C21.575 18.5277 22.029 17.7086 22.029 16.7852V12.0832H22.0707V11.2114ZM5.21413 13.919V17.4526H3.77395C3.40627 17.4526 3.10707 17.1534 3.10707 16.7857V13.2521H4.54724C4.91493 13.2521 5.21413 13.5513 5.21413 13.919ZM12.7611 22.5691H11.0086V21.712H12.7611V22.5691ZM17.8149 13.919C17.8149 13.5513 18.1141 13.2521 18.4818 13.2521H19.922V16.7857C19.922 17.1534 19.6228 17.4526 19.2551 17.4526H17.8149V13.919Z" fill="#1B2126"/>
</svg>
