<svg width="195" height="58" viewBox="0 0 195 58" fill="none" xmlns="http://www.w3.org/2000/svg">
                    <path d="M53.8731 57.7963H8.28381C3.70757 57.7963 0 53.846 0 48.9742V0.444336H45.5861C50.1624 0.444336 53.8731 4.39468 53.8731 9.26308V57.7963Z" fill="#00BE28"></path>
                            <path d="M25.0434 44.2563H14.9216C13.0804 44.2563 12.0229 43.4254 11.3525 41.6127L4.99484 24.2198H11.7994C13.6406 24.2198 14.7548 25.0809 15.3402 26.9204L18.157 35.7659H19.2712L25.6005 17.2439H37.8153C43.8394 17.2439 47.185 20.2728 47.185 25.7041C47.185 28.6426 45.819 31.0785 43.3075 32.5628C43.6694 33.3334 44.1163 34.4626 44.7867 36.3623C46.5996 41.4686 47.6854 43.0434 48.831 44.2597H42.3884C39.4897 44.2597 37.7304 42.896 36.6729 39.9542L32.7387 28.9408C33.2139 29.0614 33.7993 29.0882 34.3564 29.0882C36.7799 29.0882 38.1206 28.197 38.1206 26.5652C38.1206 24.9335 37.0317 24.2198 34.8002 24.2198H32.2351L25.0403 44.2563H25.0434Z" fill="white"></path>
                            <path d="M78.0447 21.8645C78.5326 21.8645 78.8882 21.9047 79.5082 22.0655V23.523H79.3383C78.9071 23.3421 78.6238 23.322 78.2304 23.322C76.7858 23.322 76.2602 24.1798 76.2602 25.6205V26.2605H79.1337V27.8989H76.2602V36.2519H74.4379V27.8989H73.16V26.2605H74.4379V25.7612C74.4379 23.3622 75.4702 21.8645 78.0416 21.8645H78.0447Z" fill="white"></path>
                            <path d="M79.697 31.3198C79.697 28.2808 81.705 25.9656 84.5786 25.9656C86.4921 25.9656 87.7133 27.0244 88.22 28.1033H88.2956V27.3226C88.2956 26.562 88.8023 26.2638 89.3468 26.2638H89.8346V34.0773C89.8346 34.6972 90.0801 34.8781 90.4735 34.8781C90.7725 34.8781 90.9991 34.7977 91.1691 34.6771L91.2069 34.6972V36.0776C90.9614 36.3759 90.42 36.5568 89.9479 36.5568C88.689 36.5568 88.2389 35.6387 88.2389 34.6V34.3588H88.1445C87.6 35.5181 86.3064 36.5769 84.5597 36.5769C81.705 36.5769 79.697 34.2985 79.697 31.3198ZM84.7642 34.8346C86.7345 34.8346 88.0878 33.0755 88.0878 31.2562C88.0878 29.4368 86.6999 27.6777 84.7454 27.6777C82.9073 27.6777 81.4784 29.1352 81.4784 31.2562C81.4784 33.3771 82.9419 34.8346 84.7642 34.8346Z" fill="white"></path>
                            <path d="M92.1794 31.2796C92.1794 28.2038 94.2252 25.9656 97.2278 25.9656C98.3545 25.9656 99.3868 26.2638 100.117 26.7664V28.4852H99.9471C99.3082 28.0463 98.3325 27.7246 97.3379 27.7246C95.4054 27.7246 94.0521 29.1821 94.0521 31.283C94.0521 33.3838 95.3488 34.8212 97.3946 34.8212C98.3702 34.8212 99.3082 34.5029 99.9471 34.0606H100.117V35.7996C99.3837 36.2787 98.3891 36.5802 97.2624 36.5802C94.2032 36.5802 92.1763 34.342 92.1763 31.283L92.1794 31.2796Z" fill="white"></path>
                            <path d="M101.864 22.9871C101.864 22.2466 102.446 21.667 103.085 21.667C103.762 21.667 104.344 22.2667 104.344 22.9871C104.344 23.7075 103.781 24.2872 103.085 24.2872C102.427 24.2872 101.864 23.7075 101.864 22.9871ZM102.182 26.264H104.004V36.2554H102.182V26.264Z" fill="white"></path>
                            <path d="M106.761 22.1663H108.546V36.2555H106.761V22.1663Z" fill="white"></path>
                            <path d="M110.985 22.9871C110.985 22.2466 111.567 21.667 112.206 21.667C112.883 21.667 113.465 22.2667 113.465 22.9871C113.465 23.7075 112.901 24.2872 112.206 24.2872C111.548 24.2872 110.985 23.7075 110.985 22.9871ZM111.303 26.264H113.125V36.2554H111.303V26.264Z" fill="white"></path>
                            <path d="M116.298 32.4961V27.8991H114.872V26.2607H116.373V25.021C116.373 24.3609 116.729 23.9019 117.368 23.9019H118.101V26.2607H121.16V27.8991H118.101V32.3755C118.101 34.034 118.664 34.8147 120.09 34.8147C120.654 34.8147 121.085 34.674 121.406 34.5165H121.576V36.155C120.993 36.4733 120.392 36.5738 119.791 36.5738C117.443 36.5738 116.301 35.3542 116.301 32.4961H116.298Z" fill="white"></path>
                            <path d="M122.34 31.3198C122.34 28.2808 124.348 25.9656 127.222 25.9656C129.136 25.9656 130.357 27.0244 130.863 28.1033H130.939V27.3226C130.939 26.562 131.446 26.2638 131.99 26.2638H132.478V34.0773C132.478 34.6972 132.724 34.8781 133.117 34.8781C133.416 34.8781 133.643 34.7977 133.813 34.6771L133.85 34.6972V36.0776C133.605 36.3759 133.063 36.5568 132.591 36.5568C131.332 36.5568 130.882 35.6387 130.882 34.6V34.3588H130.788C130.243 35.5181 128.95 36.5769 127.203 36.5769C124.348 36.5769 122.34 34.2985 122.34 31.3198ZM127.408 34.8346C129.378 34.8346 130.731 33.0755 130.731 31.2562C130.731 29.4368 129.343 27.6777 127.389 27.6777C125.551 27.6777 124.122 29.1352 124.122 31.2562C124.122 33.3771 125.585 34.8346 127.408 34.8346Z" fill="white"></path>
                            <path d="M139.44 31.3198C139.44 28.2808 141.448 25.9656 144.321 25.9656C146.235 25.9656 147.456 27.0244 147.963 28.1033H148.038V27.3226C148.038 26.562 148.545 26.2638 149.09 26.2638H149.577V34.0773C149.577 34.6972 149.823 34.8781 150.216 34.8781C150.515 34.8781 150.742 34.7977 150.912 34.6771L150.95 34.6972V36.0776C150.704 36.3759 150.163 36.5568 149.691 36.5568C148.432 36.5568 147.982 35.6387 147.982 34.6V34.3588H147.887C147.343 35.5181 146.049 36.5769 144.302 36.5769C141.448 36.5769 139.44 34.2985 139.44 31.3198ZM144.507 34.8346C146.477 34.8346 147.831 33.0755 147.831 31.2562C147.831 29.4368 146.443 27.6777 144.488 27.6777C142.65 27.6777 141.221 29.1352 141.221 31.2562C141.221 33.3771 142.685 34.8346 144.507 34.8346Z" fill="white"></path>
                            <path d="M155.561 26.3242L155.58 26.2639H156.404C157.175 26.2639 157.493 26.5052 157.754 27.1016L160.477 33.4174H160.59L163.668 26.2639H165.491L165.509 26.3242L161.024 36.2554H160.068L155.564 26.3242H155.561Z" fill="white"></path>
                            <path d="M166.765 22.9871C166.765 22.2466 167.347 21.667 167.986 21.667C168.663 21.667 169.245 22.2667 169.245 22.9871C169.245 23.7075 168.682 24.2872 167.986 24.2872C167.329 24.2872 166.765 23.7075 166.765 22.9871ZM167.086 26.264H168.909V36.2554H167.086V26.264Z" fill="white"></path>
                            <path d="M171.008 31.3403C171.008 28.2812 173.016 25.966 175.889 25.966C177.579 25.966 178.854 26.9846 179.251 27.9227H179.383V22.1865H181.149V34.1381C181.149 34.6976 181.432 34.8785 181.825 34.8785C182.033 34.8785 182.313 34.7981 182.483 34.6775L182.521 34.6976V36.058C182.275 36.3562 181.825 36.5572 181.262 36.5572C180.003 36.5572 179.553 35.6994 179.553 34.6574V34.3592H179.458C178.914 35.5185 177.62 36.5773 175.874 36.5773C173 36.5773 171.011 34.319 171.011 31.3403H171.008ZM176.078 34.8551C178.048 34.8551 179.402 33.0759 179.402 31.2767C179.402 29.4774 178.014 27.6982 176.059 27.6982C174.221 27.6982 172.792 29.1356 172.792 31.2767C172.792 33.4177 174.256 34.8551 176.078 34.8551Z" fill="white"></path>
                            <path d="M183.49 31.3198C183.49 28.2808 185.498 25.9656 188.372 25.9656C190.285 25.9656 191.506 27.0244 192.013 28.1033H192.089V27.3226C192.089 26.562 192.595 26.2638 193.14 26.2638H193.628V34.0773C193.628 34.6972 193.873 34.8781 194.267 34.8781C194.566 34.8781 194.792 34.7977 194.962 34.6771L195 34.6972V36.0776C194.755 36.3759 194.213 36.5568 193.741 36.5568C192.482 36.5568 192.032 35.6387 192.032 34.6V34.3588H191.938C191.393 35.5181 190.1 36.5769 188.353 36.5769C185.498 36.5769 183.49 34.2985 183.49 31.3198ZM188.557 34.8346C190.528 34.8346 191.881 33.0755 191.881 31.2562C191.881 29.4368 190.493 27.6777 188.539 27.6777C186.7 27.6777 185.272 29.1352 185.272 31.2562C185.272 33.3771 186.735 34.8346 188.557 34.8346Z" fill="white"></path>
                    </svg>